# xmcd
# Track frame offsets:
# 150
# 12145
# 30440
# 47909
# 66804
# 80448
# 97542
# 112762
# 135332
# 148751
# 168245
# 187665
# 206785
# 219230
#
# Disc length: 3145 seconds
# Revision: 0
# Processed by: cddbd v1.5.2PL0 Copyright (c) Steve Scherf et al.
# Submitted via: VisiTrax 2.11.2.271 - For more info visit www.synapsa.com
#
DISCID=a70c470e
DTITLE=Trisha Yearwood - Love Songs
DYEAR=2008
DGENRE=Country
TTITLE0=That's What I Like About You
TTITLE1=She's In Love With The Boy
TTITLE2=Down On My Knees
TTITLE3=I Don't Fall In Love So Easy
TTITLE4=If I Ain't Got You
TTITLE5=The Nightingale
TTITLE6=Thinkin' About You
TTITLE7=Maybe It's Love
TTITLE8=Powerful Thing
TTITLE9=I'll Still Love You More
TTITLE10=One Love
TTITLE11=Love Alone
TTITLE12=Baby Don't You Let Go
TTITLE13=Sweet Love
EXTD=
EXTT0=
EXTT1=
EXTT2=
EXTT3=
EXTT4=
EXTT5=
EXTT6=
EXTT7=
EXTT8=
EXTT9=
EXTT10=
EXTT11=
EXTT12=
EXTT13=
PLAYORDER=
